<svg width="128" height="128" viewBox="0 0 128 128" fill="none" xmlns="http://www.w3.org/2000/svg">
  <g filter="url(#softGlow)">
    <path
      d="M64 12C43.57 12 27 28.38 27 48.56C27 59.32 31.76 68.99 39.29 75.68C42.62 78.63 44.9 82.56 45.54 86.9L46.3 92.06L58 104H70L81.7 92.06L82.46 86.9C83.1 82.56 85.38 78.63 88.71 75.68C96.24 68.99 101 59.32 101 48.56C101 28.38 84.43 12 64 12Z"
      stroke="url(#brandStroke)"
      stroke-width="9"
      stroke-linecap="round"
      stroke-linejoin="round"
    />
    <path
      d="M58 104V116H70V104"
      stroke="url(#brandStroke)"
      stroke-width="9"
      stroke-linecap="round"
      stroke-linejoin="round"
    />
    <path
      d="M51 116H77"
      stroke="url(#brandStroke)"
      stroke-width="9"
      stroke-linecap="round"
      stroke-linejoin="round"
    />
    <path
      d="M64 104V54"
      stroke="url(#brandStroke)"
      stroke-width="9"
      stroke-linecap="round"
      stroke-linejoin="round"
    />
    <path
      d="M51 65V80L64 93"
      stroke="url(#brandStroke)"
      stroke-width="9"
      stroke-linecap="round"
      stroke-linejoin="round"
    />
    <circle cx="64" cy="47" r="9" fill="url(#brandFill)" />
    <circle cx="51" cy="59" r="8" fill="url(#brandFill)" />
  </g>
  <defs>
    <linearGradient id="brandStroke" x1="27" y1="12" x2="101" y2="116" gradientUnits="userSpaceOnUse">
      <stop stop-color="#1944F0" />
      <stop offset="0.48" stop-color="#1235C8" />
      <stop offset="1" stop-color="#1944F0" />
    </linearGradient>
    <radialGradient id="brandFill" cx="0" cy="0" r="1" gradientUnits="userSpaceOnUse" gradientTransform="translate(58 49) rotate(58) scale(26 24)">
      <stop stop-color="#37E6F1" />
      <stop offset="0.4" stop-color="#1944F0" />
      <stop offset="1" stop-color="#1235C8" />
    </radialGradient>
    <filter id="softGlow" x="-20%" y="-20%" width="140%" height="140%" color-interpolation-filters="sRGB">
      <feDropShadow dx="0" dy="0" stdDeviation="3" flood-color="#1944F0" flood-opacity="0.45" />
      <feDropShadow dx="0" dy="0" stdDeviation="1.2" flood-color="#37E6F1" flood-opacity="0.18" />
    </filter>
  </defs>
</svg>
